<svg xmlns="http://www.w3.org/2000/svg" width="512" height="512"><path d="M116.5.609C96.61 2.123 77.123 5.401 68.908 8.614c-9.476 3.707-15.414 10.439-18.465 20.934-3.994 13.738 2.712 28.286 16.047 34.816 7.938 3.886 13.364 4.269 25.107 1.772C99.598 64.435 115.823 62 119.159 62c.391 0 .449 4.051.128 9.001-.944 14.57 3.393 26.804 13.05 36.814 15.082 15.631 39.273 18.808 58.3 7.657 11.824-6.929 22.312-23.428 22.352-35.163.006-1.755.418-3.442.915-3.75 1.191-.736 17.572 5.007 32.596 11.427 13.022 5.565 30.854 14.699 44.844 22.972l8.844 5.23-5.586 4.979c-9.553 8.515-15.565 21.77-15.59 34.373-.041 20.839 14.167 40.05 33.92 45.862 6.69 1.968 19.975 2.06 26.167.18 11.565-3.51 20.422-10.027 26.713-19.656l3.937-6.025 4.952 6.299c11.7 14.882 21.244 30.289 19.682 31.772-.486.461-12.07 8.581-25.742 18.044-27.747 19.204-24.534 18.129-34.141 11.426-8.932-6.232-23.182-8.895-34.746-6.495-16.535 3.433-31.333 17.278-35.862 33.553-2.023 7.268-1.778 20.829.494 27.389 1.556 4.492 1.638 5.521.491 6.181-.758.435-13.302 9.076-27.877 19.201l-26.5 18.411-4.09-1.737c-21.937-9.316-48.132-.238-59.859 20.742-3.84 6.872-5.671 13.731-5.826 21.832l-.146 7.613-34.789 24.113L71 438.358v17.321c0 15.988.154 17.475 2 19.321 4.203 4.203 5.626 3.431 47.903-26.007 22.122-15.403 41.431-28.662 42.909-29.463 1.479-.801 16.964-11.486 34.412-23.743 70.935-49.833 96.39-67.576 98.587-68.72 1.272-.662 6.897-4.458 12.5-8.436 5.604-3.978 16.714-11.653 24.689-17.056 7.975-5.402 16.525-11.488 19-13.523 2.475-2.035 17.022-12.389 32.327-23.007l27.827-19.307 2.673 1.945c7.383 5.374 18.788 6.934 28.092 3.844 6.307-2.095 12.848-7.871 16.615-14.672 2.637-4.76 2.966-6.299 2.963-13.855-.003-7.821-.372-9.394-4.624-19.694-11.814-28.623-33.439-59.551-60.982-87.215-59.497-59.76-149.659-104.072-230.955-113.51C153.985 1.078 125.153-.05 116.5.609m69.489 161.263c-33.609 10.758-44.503 53.033-20.063 77.861 9.517 9.668 20.332 14.267 33.549 14.267 9.659 0 16.965-1.946 24.525-6.533 26.404-16.022 30.86-51.862 9.134-73.46-9.824-9.765-20.19-14.046-33.788-13.953-4.601.031-10.125.783-13.357 1.818M76.465 222.98c-4.785 1.872-4.753 1.59-5.261 46.471l-.479 42.365 2.592 2.592c2.872 2.872 5.41 3.161 13.792 1.571 16.802-3.186 31.457-16.656 36.319-33.381 2.144-7.374 2.03-19.899-.243-26.789-5.952-18.042-21.774-31.085-40.185-33.126-2.475-.274-5.416-.14-6.535.297" fill="undefined" fill-rule="evenodd"/></svg>